<?xml version="1.0" encoding="UTF-8" standalone="no"?>
<!-- Created with Inkscape (http://www.inkscape.org/) -->
<svg xmlns:dc="http://purl.org/dc/elements/1.1/" xmlns:cc="http://creativecommons.org/ns#" xmlns:rdf="http://www.w3.org/1999/02/22-rdf-syntax-ns#" xmlns:svg="http://www.w3.org/2000/svg" xmlns="http://www.w3.org/2000/svg" xmlns:xlink="http://www.w3.org/1999/xlink" xmlns:sodipodi="http://sodipodi.sourceforge.net/DTD/sodipodi-0.dtd" xmlns:inkscape="http://www.inkscape.org/namespaces/inkscape" width="1052.3622" height="744.09448" id="svg3901" version="1.1" inkscape:version="0.48.4 r9939" sodipodi:docname="fso_syrena_sport-sylwetka.svg">
  <defs id="defs3903">
    <inkscape:path-effect effect="skeletal" id="path-effect4187" is_visible="true" pattern="m 629.97737,-72.997197 c 0,-2.76 2.24,-5 5,-5 2.76,0 5,2.24 5,5 0,2.76 -2.24,5 -5,5 -2.76,0 -5,-2.24 -5,-5 z" copytype="single_stretched" prop_scale="1" scale_y_rel="false" spacing="0" normal_offset="0" tang_offset="0" prop_units="false" vertical_pattern="false" fuse_tolerance="0"/>
    <inkscape:path-effect fuse_tolerance="0" vertical_pattern="false" prop_units="false" tang_offset="0" normal_offset="0" spacing="0" scale_y_rel="false" prop_scale="1" copytype="single_stretched" pattern="m 259.19069,-56.197801 c 0,-2.76 2.24,-5 5,-5 2.76,0 5,2.24 5,5 0,2.76 -2.24,5 -5,5 -2.76,0 -5,-2.24 -5,-5 z" is_visible="true" id="path-effect4183" effect="skeletal"/>
    <inkscape:path-effect effect="skeletal" id="path-effect4178" is_visible="true" pattern="M 0,5 C 0,2.24 2.24,0 5,0 7.76,0 10,2.24 10,5 10,7.76 7.76,10 5,10 2.24,10 0,7.76 0,5 z" copytype="single_stretched" prop_scale="1" scale_y_rel="false" spacing="0" normal_offset="0" tang_offset="0" prop_units="false" vertical_pattern="false" fuse_tolerance="0"/>
    <inkscape:path-effect effect="skeletal" id="path-effect4174" is_visible="true" pattern="M 0,5 C 0,2.24 2.24,0 5,0 7.76,0 10,2.24 10,5 10,7.76 7.76,10 5,10 2.24,10 0,7.76 0,5 z" copytype="single_stretched" prop_scale="1" scale_y_rel="false" spacing="0" normal_offset="0" tang_offset="0" prop_units="false" vertical_pattern="false" fuse_tolerance="0"/>
    <inkscape:path-effect effect="skeletal" id="path-effect4170" is_visible="true" pattern="M 0,5 C 0,2.24 2.24,0 5,0 7.76,0 10,2.24 10,5 10,7.76 7.76,10 5,10 2.24,10 0,7.76 0,5 z" copytype="single_stretched" prop_scale="1" scale_y_rel="false" spacing="0" normal_offset="0" tang_offset="0" prop_units="false" vertical_pattern="false" fuse_tolerance="0"/>
    <inkscape:path-effect effect="skeletal" id="path-effect4166" is_visible="true" pattern="M 0,5 C 0,2.24 2.24,0 5,0 7.76,0 10,2.24 10,5 10,7.76 7.76,10 5,10 2.24,10 0,7.76 0,5 z" copytype="single_stretched" prop_scale="1" scale_y_rel="false" spacing="0" normal_offset="0" tang_offset="0" prop_units="false" vertical_pattern="false" fuse_tolerance="0"/>
    <inkscape:path-effect effect="skeletal" id="path-effect4162" is_visible="true" pattern="M 0,5 C 0,2.24 2.24,0 5,0 7.76,0 10,2.24 10,5 10,7.76 7.76,10 5,10 2.24,10 0,7.76 0,5 z" copytype="single_stretched" prop_scale="1" scale_y_rel="false" spacing="0" normal_offset="0" tang_offset="0" prop_units="false" vertical_pattern="false" fuse_tolerance="0"/>
    <inkscape:path-effect effect="skeletal" id="path-effect4158" is_visible="true" pattern="M 0,5 C 0,2.24 2.24,0 5,0 7.76,0 10,2.24 10,5 10,7.76 7.76,10 5,10 2.24,10 0,7.76 0,5 z" copytype="single_stretched" prop_scale="1" scale_y_rel="false" spacing="0" normal_offset="0" tang_offset="0" prop_units="false" vertical_pattern="false" fuse_tolerance="0"/>
    <inkscape:path-effect effect="skeletal" id="path-effect4154" is_visible="true" pattern="M 0,5 C 0,2.24 2.24,0 5,0 7.76,0 10,2.24 10,5 10,7.76 7.76,10 5,10 2.24,10 0,7.76 0,5 z" copytype="single_stretched" prop_scale="1" scale_y_rel="false" spacing="0" normal_offset="0" tang_offset="0" prop_units="false" vertical_pattern="false" fuse_tolerance="0"/>
    <inkscape:path-effect effect="skeletal" id="path-effect4150" is_visible="true" pattern="M 0,5 C 0,2.24 2.24,0 5,0 7.76,0 10,2.24 10,5 10,7.76 7.76,10 5,10 2.24,10 0,7.76 0,5 z" copytype="single_stretched" prop_scale="1" scale_y_rel="false" spacing="0" normal_offset="0" tang_offset="0" prop_units="false" vertical_pattern="false" fuse_tolerance="0"/>
    <inkscape:path-effect effect="skeletal" id="path-effect4146" is_visible="true" pattern="M 0,5 C 0,2.24 2.24,0 5,0 7.76,0 10,2.24 10,5 10,7.76 7.76,10 5,10 2.24,10 0,7.76 0,5 z" copytype="single_stretched" prop_scale="1" scale_y_rel="false" spacing="0" normal_offset="0" tang_offset="0" prop_units="false" vertical_pattern="false" fuse_tolerance="0"/>
    <inkscape:path-effect effect="skeletal" id="path-effect4142" is_visible="true" pattern="M 0,5 C 0,2.24 2.24,0 5,0 7.76,0 10,2.24 10,5 10,7.76 7.76,10 5,10 2.24,10 0,7.76 0,5 z" copytype="single_stretched" prop_scale="1" scale_y_rel="false" spacing="0" normal_offset="0" tang_offset="0" prop_units="false" vertical_pattern="false" fuse_tolerance="0"/>
    <inkscape:path-effect effect="skeletal" id="path-effect4138" is_visible="true" pattern="M 0,5 C 0,2.24 2.24,0 5,0 7.76,0 10,2.24 10,5 10,7.76 7.76,10 5,10 2.24,10 0,7.76 0,5 z" copytype="single_stretched" prop_scale="1" scale_y_rel="false" spacing="0" normal_offset="0" tang_offset="0" prop_units="false" vertical_pattern="false" fuse_tolerance="0"/>
    <inkscape:path-effect effect="skeletal" id="path-effect4134" is_visible="true" pattern="M 0,5 C 0,2.24 2.24,0 5,0 7.76,0 10,2.24 10,5 10,7.76 7.76,10 5,10 2.24,10 0,7.76 0,5 z" copytype="single_stretched" prop_scale="1" scale_y_rel="false" spacing="0" normal_offset="0" tang_offset="0" prop_units="false" vertical_pattern="false" fuse_tolerance="0"/>
    <inkscape:path-effect effect="skeletal" id="path-effect4130" is_visible="true" pattern="M 0,5 C 0,2.24 2.24,0 5,0 7.76,0 10,2.24 10,5 10,7.76 7.76,10 5,10 2.24,10 0,7.76 0,5 z" copytype="single_stretched" prop_scale="1" scale_y_rel="false" spacing="0" normal_offset="0" tang_offset="0" prop_units="false" vertical_pattern="false" fuse_tolerance="0"/>
    <inkscape:path-effect effect="skeletal" id="path-effect4126" is_visible="true" pattern="M 0,5 C 0,2.24 2.24,0 5,0 7.76,0 10,2.24 10,5 10,7.76 7.76,10 5,10 2.24,10 0,7.76 0,5 z" copytype="single_stretched" prop_scale="1" scale_y_rel="false" spacing="0" normal_offset="0" tang_offset="0" prop_units="false" vertical_pattern="false" fuse_tolerance="0"/>
    <inkscape:path-effect effect="skeletal" id="path-effect4122" is_visible="true" pattern="M 0,5 C 0,2.24 2.24,0 5,0 7.76,0 10,2.24 10,5 10,7.76 7.76,10 5,10 2.24,10 0,7.76 0,5 z" copytype="single_stretched" prop_scale="1" scale_y_rel="false" spacing="0" normal_offset="0" tang_offset="0" prop_units="false" vertical_pattern="false" fuse_tolerance="0"/>
    <radialGradient r="64.703225" fy="493.49448" fx="383.42322" cy="493.49448" cx="383.42322" gradientTransform="matrix(0.966911,3.002831e-2,-3.207178e-2,1.032713,28.51429,-27.6567)" gradientUnits="userSpaceOnUse" id="radialGradient16730" xlink:href="#linearGradient13754" inkscape:collect="always"/>
    <radialGradient r="39.262142" fy="346.83649" fx="556.24573" cy="346.83649" cx="556.24573" gradientTransform="matrix(2.711396,-3.675301e-6,2.481233e-6,1.827077,-951.9575,-286.8584)" gradientUnits="userSpaceOnUse" id="radialGradient16728" xlink:href="#linearGradient7568" inkscape:collect="always"/>
    <radialGradient r="32.336025" fy="373.95343" fx="927.38904" cy="373.95343" cx="927.38904" gradientTransform="matrix(0.924358,0.214319,-0.273004,1.177464,166.1311,-363.1288)" gradientUnits="userSpaceOnUse" id="radialGradient16726" xlink:href="#linearGradient8459" inkscape:collect="always"/>
    <radialGradient r="39.262142" fy="346.83649" fx="556.24573" cy="346.83649" cx="556.24573" gradientTransform="matrix(2.711396,-3.675301e-6,2.481233e-6,1.827077,-951.9575,-286.8584)" gradientUnits="userSpaceOnUse" id="radialGradient16724" xlink:href="#linearGradient7568" inkscape:collect="always"/>
    <radialGradient r="57.586159" fy="359.47702" fx="579.20819" cy="359.47702" cx="579.20819" gradientTransform="matrix(0.546935,0.339799,-0.491272,0.790743,433.6555,-210.5042)" gradientUnits="userSpaceOnUse" id="radialGradient16722" xlink:href="#linearGradient8459" inkscape:collect="always"/>
    <linearGradient y2="461.90253" x2="52.567135" y1="452.17365" x1="56.228046" gradientTransform="translate(-6.10915,-100.1901)" gradientUnits="userSpaceOnUse" id="linearGradient16720" xlink:href="#linearGradient4910" inkscape:collect="always"/>
    <radialGradient r="9.107316" fy="455.18985" fx="605.6142" cy="455.18985" cx="605.6142" gradientTransform="matrix(0.760386,-0.103692,0.139537,1.023234,82.78539,52.65714)" gradientUnits="userSpaceOnUse" id="radialGradient16718" xlink:href="#linearGradient2223" inkscape:collect="always"/>
    <radialGradient r="9.107316" fy="455.18985" fx="605.6142" cy="455.18985" cx="605.6142" gradientTransform="matrix(0.760386,-0.103692,0.139537,1.023234,82.78539,52.65714)" gradientUnits="userSpaceOnUse" id="radialGradient16716" xlink:href="#linearGradient2223" inkscape:collect="always"/>
    <radialGradient r="64.703225" fy="493.49448" fx="383.42322" cy="493.49448" cx="383.42322" gradientTransform="matrix(0.966911,3.002831e-2,-3.207178e-2,1.032713,28.51429,-27.6567)" gradientUnits="userSpaceOnUse" id="radialGradient16714" xlink:href="#linearGradient13754" inkscape:collect="always"/>
    <linearGradient y2="274.92932" x2="377.86053" y1="303.03143" x1="310.76202" gradientTransform="translate(-6.10915,-100.1901)" gradientUnits="userSpaceOnUse" id="linearGradient16712" xlink:href="#linearGradient3122" inkscape:collect="always"/>
    <radialGradient r="64.703225" fy="493.49448" fx="383.42322" cy="493.49448" cx="383.42322" gradientTransform="matrix(0.966911,3.002831e-2,-3.207178e-2,1.032713,28.51429,-27.6567)" gradientUnits="userSpaceOnUse" id="radialGradient13775" xlink:href="#linearGradient13754" inkscape:collect="always"/>
    <radialGradient gradientUnits="userSpaceOnUse" gradientTransform="matrix(0.966911,3.002831e-2,-3.207178e-2,1.032713,28.51429,-27.6567)" r="64.703225" fy="493.49448" fx="383.42322" cy="493.49448" cx="383.42322" id="radialGradient13760" xlink:href="#linearGradient13754" inkscape:collect="always"/>
    <radialGradient r="39.262142" fy="346.83649" fx="556.24573" cy="346.83649" cx="556.24573" gradientTransform="matrix(2.711396,-3.675301e-6,2.481233e-6,1.827077,-951.9575,-286.8584)" gradientUnits="userSpaceOnUse" id="radialGradient8485" xlink:href="#linearGradient7568" inkscape:collect="always"/>
    <radialGradient gradientUnits="userSpaceOnUse" gradientTransform="matrix(0.924358,0.214319,-0.273004,1.177464,166.1311,-363.1288)" r="32.336025" fy="373.95343" fx="927.38904" cy="373.95343" cx="927.38904" id="radialGradient8481" xlink:href="#linearGradient8459" inkscape:collect="always"/>
    <radialGradient gradientUnits="userSpaceOnUse" gradientTransform="matrix(0.546935,0.339799,-0.491272,0.790743,433.6555,-210.5042)" r="57.586159" fy="359.47702" fx="579.20819" cy="359.47702" cx="579.20819" id="radialGradient8457" xlink:href="#linearGradient8459" inkscape:collect="always"/>
    <radialGradient r="39.262142" fy="346.83649" fx="556.24573" cy="346.83649" cx="556.24573" gradientTransform="matrix(2.711396,-3.675301e-6,2.481233e-6,1.827077,-951.9575,-286.8584)" gradientUnits="userSpaceOnUse" id="radialGradient7576" xlink:href="#linearGradient7568" inkscape:collect="always"/>
    <linearGradient gradientTransform="translate(-6.10915,-100.1901)" gradientUnits="userSpaceOnUse" y2="461.90253" x2="52.567135" y1="452.17365" x1="56.228046" id="linearGradient4908" xlink:href="#linearGradient4910" inkscape:collect="always"/>
    <linearGradient gradientTransform="translate(-6.10915,-100.1901)" gradientUnits="userSpaceOnUse" y2="274.92932" x2="377.86053" y1="303.03143" x1="310.76202" id="linearGradient3120" xlink:href="#linearGradient3122" inkscape:collect="always"/>
    <radialGradient r="9.107316" fy="455.18985" fx="605.6142" cy="455.18985" cx="605.6142" gradientTransform="matrix(0.760386,-0.103692,0.139537,1.023234,82.78539,52.65714)" gradientUnits="userSpaceOnUse" id="radialGradient2239" xlink:href="#linearGradient2223" inkscape:collect="always"/>
    <radialGradient gradientUnits="userSpaceOnUse" gradientTransform="matrix(0.760386,-0.103692,0.139537,1.023234,82.78539,52.65714)" r="9.107316" fy="455.18985" fx="605.6142" cy="455.18985" cx="605.6142" id="radialGradient2221" xlink:href="#linearGradient2223" inkscape:collect="always"/>
    <pattern id="pattern12070" patternTransform="translate(613.5421,133.1727)" height="400" width="400" patternUnits="userSpaceOnUse">
      <rect style="fill:url(#pattern12073);stroke:none" width="400" height="400" x="0" y="0" id="rect10320"/>
    </pattern>
    <pattern id="pattern10317" patternTransform="translate(620.8058,315.8046)" height="400" width="400" patternUnits="userSpaceOnUse">
      <image id="image10314" height="400" width="400" sodipodi:absref="/home/sniezka/Documents/grafika/Tekstury/glass1.jpg" xlink:href="/home/sniezka/Documents/grafika/Tekstury/glass1.jpg" x="0" y="0"/>
    </pattern>
    <linearGradient id="linearGradient6691">
      <stop id="stop6693" offset="0" style="stop-color:#000000;stop-opacity:1;"/>
      <stop id="stop6695" offset="1" style="stop-color:#000000;stop-opacity:0;"/>
    </linearGradient>
    <linearGradient id="linearGradient6699">
      <stop style="stop-color:#5c5ce8;stop-opacity:1;" offset="0" id="stop6701"/>
      <stop style="stop-color:#3a3fb0;stop-opacity:1;" offset="1" id="stop6703"/>
    </linearGradient>
    <pattern patternTransform="translate(613.5421,133.1727)" id="pattern11195" xlink:href="#pattern10317" inkscape:collect="always"/>
    <pattern patternTransform="translate(4.677734e-5,1.025391e-6)" id="pattern12073" xlink:href="#pattern11195" inkscape:collect="always"/>
    <linearGradient id="linearGradient2223">
      <stop style="stop-color:#8b5a00;stop-opacity:1;" offset="0" id="stop2225"/>
      <stop style="stop-color:#ffa500;stop-opacity:1;" offset="1" id="stop2227"/>
    </linearGradient>
    <linearGradient id="linearGradient3114">
      <stop id="stop3116" offset="0" style="stop-color:#960000;stop-opacity:1;"/>
      <stop id="stop3118" offset="1" style="stop-color:#960000;stop-opacity:0;"/>
    </linearGradient>
    <linearGradient id="linearGradient3122">
      <stop style="stop-color:#00688b;stop-opacity:1;" offset="0" id="stop3124"/>
      <stop style="stop-color:#00bfff;stop-opacity:1;" offset="1" id="stop3126"/>
    </linearGradient>
    <linearGradient id="linearGradient4910">
      <stop style="stop-color:#7a8b8b;stop-opacity:1;" offset="0" id="stop4912"/>
      <stop style="stop-color:#f4ffff;stop-opacity:1;" offset="1" id="stop4914"/>
    </linearGradient>
    <linearGradient id="linearGradient7568">
      <stop style="stop-color:#ffffff;stop-opacity:1;" offset="0" id="stop7570"/>
      <stop style="stop-color:#eeee00;stop-opacity:1;" offset="1" id="stop7572"/>
    </linearGradient>
    <linearGradient id="linearGradient8459">
      <stop style="stop-color:#960000;stop-opacity:1;" offset="0" id="stop8461"/>
      <stop style="stop-color:#c80000;stop-opacity:0.98969072;" offset="1" id="stop8463"/>
    </linearGradient>
    <linearGradient id="linearGradient8475">
      <stop id="stop8477" offset="0" style="stop-color:#ffffff;stop-opacity:1;"/>
      <stop id="stop8479" offset="1" style="stop-color:#eeee00;stop-opacity:1;"/>
    </linearGradient>
    <linearGradient id="linearGradient13746">
      <stop id="stop13748" offset="0" style="stop-color:#000000;stop-opacity:1;"/>
      <stop id="stop13750" offset="1" style="stop-color:#7981a8;stop-opacity:0;"/>
    </linearGradient>
    <linearGradient id="linearGradient13754">
      <stop id="stop13756" offset="0" style="stop-color:#e6e6e6;stop-opacity:1;"/>
      <stop id="stop13758" offset="1" style="stop-color:#646464;stop-opacity:1;"/>
    </linearGradient>
  </defs>
  <sodipodi:namedview id="base" pagecolor="#ffffff" bordercolor="#666666" borderopacity="1.0" inkscape:pageopacity="0.0" inkscape:pageshadow="2" inkscape:zoom="0.83336328" inkscape:cx="526.18109" inkscape:cy="372.04724" inkscape:document-units="mm" inkscape:current-layer="layer3" showgrid="false" units="mm" inkscape:window-width="1326" inkscape:window-height="811" inkscape:window-x="0" inkscape:window-y="0" inkscape:window-maximized="0"/>
  <g inkscape:groupmode="layer" id="layer3" inkscape:label="Rysunek">
    <path style="fill:#000000;fill-rule:evenodd;stroke:none" d="m 517.18142,295.31061 c 0.077,-0.35036 10.40187,1.56086 29.9216,5.50668 3.57097,0.50131 7.45709,0.98059 11.64607,1.32595 4.18899,0.34536 8.68101,0.55808 13.45476,0.45672 3.72489,-0.0783 7.61203,-0.34109 11.57055,-1.05854 3.21072,-0.5867 6.46759,-1.43986 9.49176,-2.92857 4.89401,-2.39832 9.62206,-5.85464 13.41193,-10.42403 1.64178,-2.00776 3.09503,-4.18314 3.77948,-6.56202 0.56639,-1.9703 0.58702,-4.16005 -0.27277,-5.90027 -2.61418,-5.6272 -5.13163,-11.53861 -7.69925,-17.65558 -2.56761,-6.11696 -5.18464,-12.4398 -8.079,-18.85322 -4.61458,-10.20393 -10.18852,-20.61933 -17.96431,-29.90735 -4.154,-4.96574 -8.60946,-9.82376 -13.74039,-13.99961 -4.83751,-3.92018 -10.27628,-7.29377 -16.2823,-8.9608 -12.25074,-3.47021 -25.46396,-5.34786 -39.24442,-6.34318 -14.64729,-1.0516 -29.91592,-1.04516 -45.68849,-0.33295 -15.18463,0.68627 -30.81265,2.00998 -46.85127,3.89616 -16.03861,1.88618 -32.48784,4.33519 -49.31122,7.20801 -25.40289,4.34041 -51.64699,9.70314 -78.61118,16.09874 -7.87734,1.86854 -15.81157,3.82418 -23.79086,5.8982 -2.14999,0.55883 -4.30071,1.12552 -6.45062,1.70516 -0.68414,0.18255 -1.36877,0.36521 -2.05387,0.54799 -34.19416,13.56027 -69.80059,27.6689 -106.6913,42.27501 -9.77029,2.72498 -19.6279,5.47367 -29.5706,8.24545 -8.15133,2.62452 -16.23389,5.51726 -24.075654,8.98387 -6.980727,3.11441 -13.75409,6.41458 -19.32478,10.98863 -9.903402,7.85925 -16.091082,20.24014 -21.422454,33.07593 -1.524544,3.72192 -2.323968,7.82312 -2.563247,12.01266 -0.244243,4.32362 0.148808,8.75995 0.939856,13.19762 1.605914,9.02201 4.915238,17.87979 8.992237,26.52751 3.370121,7.11651 7.298612,14.03385 11.656469,20.73995 0,0 0,0 0,0 1.340876,2.06206 2.716458,4.09447 4.139057,6.08567 0,0 10e-7,1e-5 10e-7,1e-5 0.390422,0.54645 0.780607,1.08493 1.173004,1.61347 0,0 10e-7,0 10e-7,0 0.102764,0.13842 0.203692,0.27357 0.303129,0.40517 -1.7e-5,10e-6 -2.1e-5,10e-6 -2.5e-5,10e-6 -1.335946,0.67883 -2.673104,1.35614 -4.011428,2.03191 0,0 0,0 0,0 0.0064,0.01 0.01277,0.0195 0.01917,0.0292 1.8e-5,3e-5 3.6e-5,6e-5 5.4e-5,9e-5 0.0022,0.003 0.0045,0.007 0.0067,0.0102 -6.111279,-19.27307 -12.32287,-38.76736 -18.626905,-58.47134 -2e-6,-4e-5 -2e-6,-4e-5 -2e-6,-4e-5 -0.0018,-0.0167 -0.0036,-0.0334 -0.0054,-0.0501 -1e-5,-9e-5 -2e-5,-1.8e-4 -3e-5,-2.8e-4 -0.005,-0.0469 -0.01003,-0.0936 -0.015,-0.14028 -0.01913,-0.17955 -0.0379,-0.35758 -0.05643,-0.53408 -0.01274,-0.2758 -0.02297,-0.54653 -0.0315,-0.81215 -0.03061,-0.95224 -0.04286,-1.89893 -0.04045,-2.83945 0,-3e-5 0,-7e-5 0,-1.1e-4 0.005,-2.92006 0.149649,-5.88074 0.496836,-8.86046 5e-6,-4e-5 9e-6,-8e-5 1.3e-5,-1.1e-4 0.34915,-3.23489 1.00486,-6.69296 2.384828,-10.15702 0.590401,-1.51185 1.456879,-3.10446 2.699802,-4.64931 1.118707,-1.41679 2.711126,-2.64089 4.739291,-3.46504 9.54631,-3.59307 19.142277,-7.20432 28.786444,-10.83319 1.811648,-0.61451 3.539432,-0.70565 5.051064,-0.35927 1.623256,0.36162 2.974926,0.93657 4.050476,1.59563 4e-5,3e-5 8e-5,5e-5 1.2e-4,8e-5 2.54803,1.54734 4.58771,3.39723 6.27035,5.2145 2.04545,2.71197 4.09414,5.42857 6.14603,8.14977 5.01117,34.73229 10.08789,70.03564 15.22595,105.85176 63.30028,6.82475 128.16406,13.84093 194.29838,21.00558 -0.23363,0.21332 -0.46617,0.43649 -0.6987,0.6597 -0.68453,0.64644 -1.36902,1.29318 -2.05347,1.94022 -0.0167,-0.15233 -0.033,-0.30367 -0.0491,-0.45401 -0.0628,-0.58521 -0.12381,-1.16872 -0.18374,-1.75043 -0.22713,-2.20442 -0.44145,-4.40795 -0.6476,-6.61 -0.73353,-7.83539 -1.36772,-15.69324 -1.92004,-23.56937 -1.14239,-16.27482 -1.95825,-32.66542 -2.27199,-49.14748 -0.14445,-7.58838 -0.18177,-15.16793 -0.0971,-22.73612 0.14445,-12.97408 0.65759,-25.9472 1.8353,-38.86027 0,-4e-5 0,-8e-5 1e-5,-1.2e-4 1.04906,-11.57809 2.61698,-23.21425 5.44119,-34.64853 1.19196,-4.82904 2.64501,-9.66292 4.53214,-14.39787 2e-5,-4e-5 3e-5,-8e-5 4e-5,-1.1e-4 1.59112,-4.01811 3.56436,-8.0289 6.14629,-11.7952 2e-5,-4e-5 5e-5,-7e-5 7e-5,-1.1e-4 2.15276,-3.17523 4.90166,-6.17784 8.35636,-8.57182 4e-5,-2e-5 8e-5,-5e-5 1.2e-4,-8e-5 3.22892,-2.20157 6.99664,-3.60189 10.96852,-3.99338 21.3471,-2.00599 42.55101,-3.99669 63.60042,-5.97108 3.33215,-0.23014 6.40185,0.59086 8.89272,2.10481 2.94903,1.7835 5.23376,4.0316 7.01744,6.30702 5.12285,6.41412 8.44214,13.62326 11.20356,20.54953 3.79059,9.34534 6.75272,18.87265 9.38001,28.34851 2.99758,10.7941 5.55569,21.62577 7.87282,32.42553 4.36632,20.34681 7.90977,40.65791 10.97627,60.82189 1.02137,6.71468 1.98755,13.41983 2.88733,20.1155 0.074,2.05484 0.14832,4.10806 0.22295,6.15964 8.06014,7.3515 16.08066,14.66752 24.06066,21.94724 -0.0241,-0.013 -0.0528,-0.0261 -0.0814,-0.0392 -0.0799,-0.0385 -0.15981,-0.0769 -0.23971,-0.11534 -0.3165,-0.15229 -0.63296,-0.30458 -0.94939,-0.45684 0.27149,0.006 0.54297,0.0127 0.8144,0.019 1.05862,0.0247 2.11669,0.0494 3.17419,0.074 4.0237,0.0939 8.03928,0.1876 12.04664,0.2812 14.44949,0.3375 28.79214,0.67325 43.02349,1.00719 44.76886,1.05053 88.43625,2.08324 130.8638,3.09383 45.39447,1.08127 89.36931,2.1384 131.75532,3.15871 14.91219,0.35897 29.62706,0.71414 44.13747,1.05871 4.27509,0.10151 8.53126,0.2025 12.76845,0.29922 1.19412,0.0273 2.38481,0.0543 3.57214,0.0794 0.34174,0.007 0.68054,0.0143 1.01642,0.0205 0.1793,0.003 0.32334,0.007 0.4322,0.007 -0.27057,0.0629 -0.12058,-0.0364 0.45363,-0.13615 0.72237,-0.18651 1.48755,-0.43662 2.30421,-0.71192 3e-5,-10e-6 6e-5,-10e-6 8e-5,-2e-5 2.55011,-0.8644 5.09181,-1.87762 7.65463,-2.94007 7.79833,-3.23716 15.36877,-6.87316 22.73302,-10.7663 8.85633,-4.68732 17.35671,-9.72412 25.23389,-15.37385 7.25977,-5.24626 14.05587,-10.7768 18.98041,-17.46359 5.30671,-7.14498 9.30891,-15.13767 11.68415,-23.46055 2.35003,-8.3731 3.0973,-17.10449 1.06952,-25.00931 -0.79248,-3.50569 -3.15345,-6.81965 -5.73662,-10.15166 0,0 0,0 0,0 -3.00436,-3.76421 -6.47383,-7.19422 -10.10768,-10.47435 0,0 0,0 0,0 -3.09776,-2.79004 -6.30903,-5.42771 -9.5942,-7.93724 0,0 0,0 0,0 -2e-5,-2e-5 -4e-5,-3e-5 -6e-5,-5e-5 0,0 0,0 0,0 -1.02295,-0.78117 -2.04882,-1.54648 -3.08034,-2.29162 -10e-6,-2e-5 -3e-5,-3e-5 -5e-5,-4e-5 0,0 0,0 0,-10e-6 -0.28402,-0.20516 -0.56612,-0.4072 -0.84688,-0.60533 10e-6,10e-6 2e-5,10e-6 2e-5,10e-6 0.17474,0.0443 0.35068,0.0897 0.52774,0.13624 0,0 0,0 0,0 -0.0202,-0.0141 -0.0403,-0.0282 -0.0605,-0.0422 -0.007,-0.005 -0.0142,-0.01 -0.0213,-0.0148 -15.28525,-2.21091 -30.17462,-4.36271 -44.65331,-6.45335 -5.27219,-6.14639 -11.9393,-11.05329 -18.8087,-15.47474 -8.82368,-5.69068 -18.12953,-10.28043 -27.42192,-14.37345 -2e-5,-1e-5 -4e-5,-2e-5 -6e-5,-3e-5 -13.1982,-5.81018 -26.32016,-10.56786 -39.13995,-14.68021 -12.81979,-4.11235 -25.33788,-7.57848 -37.38934,-10.69237 -17.79051,-4.59351 -34.60341,-8.31829 -50.28876,-11.44563 -15.68536,-3.12734 -30.24372,-5.65626 -43.55958,-7.77972 -31.28965,-4.98895 -55.71966,-7.7088 -72.2802,-9.41767 -8.28026,-0.85444 -14.5969,-1.45207 -18.83952,-1.89302 -4.24263,-0.44096 -6.41138,-0.72651 -6.40159,-0.88983 0.01,-0.16332 2.19798,-0.20075 6.46569,-0.078 4.26772,0.12273 10.61514,0.4069 18.9364,0.95395 16.64254,1.09411 41.19752,3.22303 72.66957,7.66032 13.39292,1.88795 28.04328,4.18945 43.84226,7.10066 15.79898,2.91122 32.74715,6.43117 50.70263,10.83515 12.15355,2.97868 24.80729,6.32727 37.81112,10.34771 13.00383,4.02043 26.35825,8.71184 39.85393,14.49036 2e-5,10e-6 4e-5,2e-5 6e-5,3e-5 9.50748,4.06863 19.13435,8.7164 28.41357,14.57082 6.55025,4.13692 13.05335,9.02219 18.35247,15.46634 14.32743,1.80208 29.04687,3.65146 44.14351,5.54622 0.007,0.005 0.014,0.01 0.021,0.0143 0.0199,0.0136 0.0398,0.0271 0.0596,0.0407 0,0 0,0 0,0 0.33221,0.15393 0.66298,0.30722 0.99237,0.45975 0,0 10e-6,0 10e-6,1e-5 0.30839,0.21412 0.6129,0.42866 0.91409,0.64278 0,0 0,0 0,10e-6 2e-5,10e-6 4e-5,2e-5 6e-5,3e-5 1.09417,0.77788 2.1752,1.57142 3.24559,2.3762 0,0 0,0 0,0 2e-5,10e-6 4e-5,3e-5 6e-5,4e-5 0,0 0,0 0,0 3.43632,2.58282 6.81191,5.31437 10.08806,8.22042 0,0 0,0 0,0 3.83598,3.39535 7.59224,7.0725 10.97577,11.22803 0,0 0,0 0,0 2.93857,3.51389 5.77794,7.70359 7.18117,12.83419 2.38716,9.46024 1.69951,19.46738 -0.93987,28.78202 -2.57689,9.2327 -6.91352,18.0589 -12.70552,25.94442 -5.67718,7.67068 -13.0047,13.81055 -20.5408,19.23645 -8.2109,5.95449 -16.98339,11.2303 -26.03953,16.08042 -7.52371,4.03393 -15.2957,7.81765 -23.34164,11.20993 -2.62957,1.11012 -5.33068,2.20005 -8.13599,3.1712 -3e-5,1e-5 -5e-5,2e-5 -8e-5,3e-5 -0.88505,0.30796 -1.83254,0.61834 -2.85236,0.89302 -0.40304,0.15892 -1.24142,0.35059 -2.52395,0.41351 -0.22201,1.1e-4 -0.40885,-0.003 -0.56047,-0.005 -0.34879,-0.005 -0.69487,-0.01 -1.03824,-0.0155 -1.19605,-0.019 -2.39152,-0.04 -3.58639,-0.0611 -4.24267,-0.0748 -8.502,-0.15405 -12.7778,-0.23392 -14.51466,-0.27111 -29.23259,-0.55477 -44.14645,-0.8442 -42.39164,-0.82268 -86.37132,-1.69842 -131.76957,-2.61574 -42.43127,-0.85736 -86.10199,-1.7521 -130.87376,-2.68089 -14.23228,-0.29525 -28.57583,-0.59395 -43.0262,-0.89607 -4.0076,-0.0838 -8.02343,-0.16784 -12.04738,-0.25216 -1.05757,-0.0222 -2.1157,-0.0443 -3.1744,-0.0665 -0.27146,-0.006 -0.54295,-0.0114 -0.81448,-0.0171 -0.45412,-0.15532 -0.90826,-0.31065 -1.36244,-0.46599 -0.11467,-0.0392 -0.22933,-0.0784 -0.344,-0.11766 -0.0374,-0.0133 -0.0748,-0.0266 -0.11225,-0.0399 -9.52204,-8.6272 -19.10207,-17.31167 -28.74198,-26.05113 -0.58735,-3.01635 -1.17581,-6.03715 -1.76537,-9.06237 -0.90445,-6.6258 -1.87524,-13.2664 -2.90114,-19.92204 -3.08619,-20.01796 -6.63087,-40.13188 -10.97866,-60.22668 -2.30798,-10.665 -4.83622,-21.3052 -7.7824,-31.84895 -2.59689,-9.27873 -5.45083,-18.44775 -9.05288,-27.26839 -2.75975,-6.64095 -5.59876,-13.01838 -9.75137,-18.04153 -1.44699,-1.70822 -2.83604,-3.18409 -4.32591,-3.98873 -1.08673,-0.57199 -2.18847,-0.95576 -2.98529,-0.79637 -21.04728,1.99699 -42.24938,4.00685 -63.595,6.02848 -2.19182,0.18999 -4.40419,1.03358 -6.30436,2.3205 -3e-5,1e-5 -5e-5,3e-5 -7e-5,4e-5 -2.16193,1.42613 -4.04271,3.57036 -5.7556,5.9977 -2e-5,3e-5 -4e-5,6e-5 -6e-5,8e-5 -2.03593,2.92652 -3.65565,6.28331 -5.08761,9.83511 -1e-5,3e-5 -3e-5,6e-5 -4e-5,9e-5 -1.67354,4.18114 -2.98424,8.58128 -4.10589,13.09805 -2.66056,10.72141 -4.13956,21.85891 -5.17631,33.15824 0,3e-5 -10e-6,7e-5 -10e-6,1.1e-4 -1.14567,12.57001 -1.6424,25.27735 -1.7864,38.06511 -0.0836,7.46043 -0.0464,14.93911 0.0966,22.43366 0.31054,16.27826 1.11696,32.4999 2.24384,48.64007 0.54559,7.80679 1.17102,15.58755 1.8938,23.33823 0.20315,2.17837 0.41358,4.35113 0.63596,6.51773 0.0587,0.57177 0.11801,1.14138 0.17865,1.70876 0.0156,0.14576 0.0311,0.29048 0.0468,0.43415 -0.67625,0.72223 -1.35251,1.44415 -2.02876,2.16577 -0.23044,0.24224 -0.46088,0.48445 -0.69132,0.72662 -69.5143,-6.71736 -137.67938,-13.32461 -204.08617,-19.78309 -6.23141,-36.46101 -12.36075,-72.39613 -18.37291,-107.74065 -1.62346,-1.86727 -3.24504,-3.73277 -4.86475,-5.59655 -1.36647,-1.38141 -2.604382,-2.57161 -3.870336,-3.23789 -2e-5,-10e-6 -4e-5,-2e-5 -6.1e-5,-3e-5 -0.54415,-0.28098 -0.922999,-0.48979 -1.134054,-0.49715 -0.102183,0.0218 -0.08303,-0.0298 0.188418,-0.0668 -9.65218,3.60727 -19.256534,7.19615 -28.811523,10.76607 -0.144439,-0.009 -0.418285,0.2723 -0.780091,0.63859 -0.444025,0.48685 -0.82197,1.25947 -1.232004,2.18768 -0.945883,2.20868 -1.396516,4.84234 -1.765814,7.67669 -3e-6,3e-5 -7e-6,6e-5 -1.1e-5,9e-5 -0.307422,2.5503 -0.43745,5.1529 -0.452736,7.78517 -10e-7,4e-5 -10e-7,7e-5 -10e-7,1e-4 -0.0041,0.8447 0.0043,1.68254 0.02905,2.51297 0.0069,0.23179 0.0148,0.4583 0.02451,0.6795 -0.01259,-0.045 -0.02511,-0.0915 -0.03746,-0.13964 -0.0032,-0.0125 -0.0064,-0.0251 -0.0096,-0.0378 -6e-6,-3e-5 -1.2e-5,-5e-5 -1.8e-5,-8e-5 -0.0011,-0.005 -0.0023,-0.009 -0.0034,-0.0136 0,0 0,0 0,0 3.405349,20.75181 6.79553,41.2649 10.172053,61.52435 -0.0028,-0.003 -0.0056,-0.006 -0.0084,-0.01 -2.2e-5,-2e-5 -4.4e-5,-5e-5 -6.7e-5,-8e-5 -0.008,-0.009 -0.01599,-0.0183 -0.02397,-0.0275 0,0 0,0 0,0 -1.394714,0.60149 -2.788065,1.20438 -4.1801,1.80871 -4e-6,0 -8e-6,0 -1.2e-5,0 -0.119005,-0.15852 -0.234915,-0.31466 -0.348096,-0.46813 0,0 -10e-7,0 -10e-7,0 -0.432283,-0.58616 -0.853743,-1.17129 -1.266867,-1.75346 0,0 -10e-7,0 -2e-6,0 -1.505834,-2.12197 -2.950645,-4.26996 -4.346964,-6.43264 0,0 0,0 0,0 -4.539573,-7.02674 -8.6448,-14.31537 -12.186679,-21.85071 -4.306076,-9.12248 -7.826677,-18.75738 -9.626775,-28.83702 -0.888763,-4.98307 -1.306309,-10.11808 -1.01589,-15.2879 0.280514,-5.03988 1.31471,-10.09892 3.260695,-14.88198 5.365699,-13.37877 12.505713,-26.93282 24.175908,-36.52157 6.660558,-5.31817 14.101881,-8.98541 21.355637,-12.1142 8.292737,-3.60994 16.720713,-6.58824 25.119433,-9.24474 9.86624,-2.6971 19.6498,-5.37097 29.34853,-8.02103 36.95713,-14.43517 72.63361,-28.35914 106.90105,-41.72197 0.82828,-0.22512 1.65572,-0.45 2.48231,-0.67464 2.18555,-0.57576 4.3659,-1.13684 6.53966,-1.68835 8.05465,-2.04348 16.05396,-3.96471 23.98705,-5.7953 27.1531,-6.26609 53.58892,-11.48565 79.17937,-15.67053 16.94015,-2.77192 33.53003,-5.11343 49.72382,-6.88622 16.19379,-1.77279 31.99149,-2.9772 47.35166,-3.53897 15.95833,-0.58427 31.47331,-0.44172 46.39841,0.7735 14.02978,1.13643 27.61967,3.22931 40.31466,6.96062 6.94338,2.0713 12.96914,5.85095 18.11186,10.17441 5.45515,4.5682 10.07298,9.7062 14.26321,14.86346 8.06074,9.92443 13.70239,20.76597 18.2506,31.25878 2.84135,6.54233 5.37864,12.93481 7.84805,19.08111 2.46941,6.1463 4.87018,12.04676 7.35637,17.63912 1.22953,2.85578 1.20554,5.95421 0.3284,8.65594 -0.99611,3.06032 -2.73032,5.63065 -4.62621,7.80265 -4.26212,4.94402 -9.45297,8.58782 -14.78227,11.05329 -3.45257,1.59263 -6.99979,2.45489 -10.40115,2.98524 -4.19636,0.66024 -8.2385,0.84209 -12.0633,0.82499 -4.91442,-0.0228 -9.50064,-0.36228 -13.75338,-0.83523 -4.25275,-0.47296 -8.17218,-1.08072 -11.7582,-1.7103 -19.43474,-4.61671 -29.6107,-7.21175 -29.53369,-7.56212 z" id="path4120" inkscape:path-effect="#path-effect4122" inkscape:original-d="m 517.18141,295.31061 c 0,0 53.63583,15.81898 76.79724,4.79983 9.32128,-4.43464 22.2712,-15.80209 17.99936,-25.1991 C 599.53742,247.5451 594.30797,227.03809 578.37922,207.71376 570.03387,197.5894 559.78607,187.35374 547.18034,183.71462 452.61471,156.41471 253.1909,211.31363 253.1909,211.31363 l -106.79616,41.99849 c 0,0 -53.720962,12.07661 -74.397327,28.79896 -10.782397,8.72044 -17.559866,21.95913 -22.799181,34.79875 -13.914377,34.09898 25.199094,85.19694 25.199094,85.19694 L 59.997844,342.10893 c 0,0 -1.340587,-23.19642 7.199741,-26.39905 L 95.99655,304.91026 c 6.14256,-2.30346 15.59944,11.99957 15.59944,11.99957 l 16.7994,106.79617 199.19284,20.39926 c 0,0 -22.9312,-206.42541 27.59901,-211.19241 l 63.59771,-5.99978 c 32.36218,-3.05303 53.99806,173.99375 53.99806,173.99375 l 26.39905,23.99913 c 0,0 379.18638,8.3997 383.9862,8.3997 4.79983,0 61.73392,-23.92345 80.39711,-49.19823 10.54573,-14.28163 17.57399,-34.39229 13.19953,-51.59815 -3.76589,-14.8122 -31.19888,-33.59879 -31.19888,-33.59879 l -44.3984,-5.99978 C 865.5689,250.51222 712.3744,216.51344 585.57896,208.91371" inkscape:connector-curvature="0" sodipodi:nodetypes="casaaccasccsscccssccsaaccc"/>
    <path style="fill:#000000;fill-rule:evenodd;stroke:none" d="m 944.36606,291.71072 c -0.86962,0.0702 -2.27455,-7.1423 -4.01429,-19.83457 -0.8697,-4.83677 -1.93189,-10.43943 -3.60905,-16.52989 -0.62924,-2.25278 -1.30448,-4.56136 -2.12904,-6.837 -0.82456,-2.27564 -1.79817,-4.51844 -3.06779,-6.61045 -2.87711,-4.79208 -6.55044,-9.60626 -11.08064,-13.84518 -4.53019,-4.23892 -9.91747,-7.90247 -16.1219,-10.13263 -9.30585,-3.457 -19.55042,-5.93432 -30.51355,-7.609 -10.96312,-1.67469 -22.64365,-2.55162 -34.66097,-3.14486 -0.87415,-0.0412 -1.75014,-0.0802 -2.62792,-0.11678 -13.08626,-0.54602 -25.84509,-0.55269 -38.0801,-0.26264 -12.23501,0.29005 -23.94571,0.87473 -34.93787,1.54896 -10e-6,0 -10e-6,0 -10e-6,0 0,0 0,0 0,0 -25.51887,1.56904 -47.13575,3.71132 -62.69044,5.17737 0,0 0,0 0,0 -8.19342,0.77234 -14.70033,1.36768 -19.21289,1.65017 0,0 0,0 0,0 -2.29917,0.14393 -4.07907,0.20667 -5.30002,0.17187 0,0 0,0 0,0 -0.61544,-0.0175 -1.08842,-0.0599 -1.41411,-0.12916 0,0 0,0 0,0 0,0 0,0 0,0 -0.17837,-0.11776 -0.30851,-0.18098 -0.39519,-0.21958 0,0 0,0 0,0 0,0 0,0 0,0 -0.0472,-0.04 -0.0807,-0.0586 -0.10245,-0.0671 -0.0109,-0.004 -0.0188,-0.006 -0.0241,-0.007 -0.008,-2e-4 -0.008,-2e-4 -0.008,-2e-4 0,0 0,0 -2.8e-4,-0.002 0.0124,-0.004 0.0192,-0.008 0.028,-0.016 0.0174,-0.0155 0.0424,-0.0446 0.0727,-0.0986 0,0 0,0 0,0 0,0 0,0 0,0 0.068,-0.0664 0.16864,-0.17092 0.29568,-0.34293 0,0 0,0 0,0 0,0 0,0 0,0 0.28284,-0.1773 0.71487,-0.37917 1.29045,-0.60312 0,0 0,0 0,0 1.14188,-0.44429 2.85048,-0.97587 5.08372,-1.5752 0,0 0,0 0,0 4.38325,-1.17632 10.79367,-2.6159 18.91987,-4.16094 0,0 0,0 0,0 15.42612,-2.93323 37.06061,-6.29168 62.77025,-8.6768 0,0 0,0 0,0 0,0 0,0 10e-6,0 11.06688,-1.02844 22.90347,-1.89058 35.32258,-2.36715 12.4191,-0.47656 25.42077,-0.56534 38.79755,-0.0112 0.89727,0.0372 1.79288,0.0771 2.68678,0.1198 12.21513,0.55724 24.28192,1.57216 35.74089,3.52425 11.45897,1.9521 22.30666,4.84522 32.20763,8.80213 7.42942,3.03256 13.63247,7.53734 18.66098,12.60086 5.02851,5.06352 8.88418,10.6852 11.73442,16.21943 1.39804,2.71773 2.39881,5.42338 3.17531,8.03963 0.77649,2.61624 1.32851,5.14328 1.78369,7.5305 1.2876,6.59511 1.86313,12.47848 2.19509,17.49461 0.32473,12.89859 0.0947,20.24945 -0.77496,20.31961 z" id="path4124" inkscape:path-effect="#path-effect4126" inkscape:original-d="m 944.36606,291.71074 c 0,0 -1.1143,-36.29923 -9.59965,-51.59815 -6.31633,-11.38823 -16.65005,-21.70952 -28.79897,-26.39905 -72.0191,-27.79966 -231.59167,1.19996 -231.59167,1.19996 l 0,0" inkscape:connector-curvature="0" sodipodi:nodetypes="caacc"/>
    <path style="fill:#000000;fill-rule:evenodd;stroke:none" d="m 477.58284,396.10699 c -0.015,-1.37992 26.5826,-2.91666 69.57749,-4.28974 42.99488,-1.37308 102.38657,-2.5804 167.95932,-3.36117 64.5444,-0.76853 123.10805,-0.99712 165.95037,-0.7245 0,0 0,0 0,0 26.86585,0.17091 47.54114,0.52595 59.63932,1.06513 0,0 0,0 0,0 4.46405,0.19891 7.75685,0.42313 9.76387,0.67762 0,0 0,0 0,0 0.81793,0.10371 1.42119,0.21252 1.80337,0.32763 0,0 0,0 0,0 0.16996,0.12191 0.29529,0.1896 0.37663,0.2316 0,0 0,0 0,0 0,0 0,0 0,0 0,0 0,0 0,0 0.0383,0.0378 0.0667,0.0562 0.0854,0.0652 0,0 0,0 0,0 0.009,0.004 0.0157,0.006 0.0202,0.007 0.007,0.001 0.007,0.001 0.007,0.001 0,0 10e-6,0 10e-6,0.001 -0.0114,0.002 -0.0179,0.004 -0.0266,0.009 0,0 0,0 0,0 -0.0181,0.0102 -0.0452,0.0305 -0.081,0.0707 0,0 0,0 0,0 0,0 0,0 0,0 0,0 0,0 0,0 -0.0788,0.0472 -0.20055,0.12246 -0.36318,0.25395 0,0 0,0 0,0 -0.376,0.13693 -0.97543,0.27769 -1.78839,0.42065 0,0 0,0 0,0 -1.9952,0.35082 -5.28341,0.71479 -9.73804,1.08156 0,0 0,0 0,0 -12.07523,0.99414 -32.74681,2.00841 -59.59712,2.9411 0,0 0,0 0,0 -42.82272,1.48747 -101.38196,2.80125 -165.93276,3.56986 -65.57925,0.78085 -124.98616,0.86827 -168.00143,0.43147 -43.01526,-0.43681 -69.63948,-1.39993 -69.65444,-2.77985 z" id="path4128" inkscape:path-effect="#path-effect4130" inkscape:original-d="m 477.58284,396.10699 c 442.78409,-4.79983 475.18292,-5.99979 475.18292,-5.99979" inkscape:connector-curvature="0"/>
    <path style="fill:#000000;fill-rule:evenodd;stroke:none" d="m 967.16523,336.10913 c -0.009,0.0129 -0.0232,0.0221 -0.0423,0.0278 -0.0188,0.006 -0.0424,0.008 -0.0709,0.006 0,0 0,0 0,0 -0.0572,-0.002 -0.13379,-0.018 -0.2304,-0.0462 0,0 0,0 0,0 -0.19441,-0.0566 -0.46834,-0.16315 -0.82571,-0.31446 0,0 0,0 0,0 -0.72792,-0.30819 -1.79497,-0.7963 -3.2198,-1.41834 0,0 0,0 0,0 -1.48749,-0.6494 -3.35414,-1.44574 -5.61228,-2.32635 -2.25814,-0.8806 -4.90952,-1.84255 -7.94712,-2.86124 0,0 0,0 0,0 -6.76531,-2.26855 -15.39674,-4.8079 -25.84418,-7.12847 -5.22372,-1.16028 -10.89996,-2.26918 -17.00575,-3.30242 -6.1058,-1.03325 -12.64151,-1.9901 -19.56573,-2.88665 0,0 0,0 0,0 -18.28678,-2.36322 -39.24046,-4.3149 -62.4717,-5.33555 -23.23123,-1.02064 -48.74124,-1.10244 -76.09774,-0.0324 -27.3565,1.07008 -56.55983,3.29384 -87.12296,6.50534 -30.56313,3.21149 -62.48548,7.40676 -95.22715,12.05767 0,0 0,0 0,0 4e-5,-10e-6 7e-5,-2e-5 1e-4,-3e-5 0,0 0,0 0,0 1.39802,-0.45529 2.16411,-0.86951 2.36733,-1.45427 10e-6,-1e-5 10e-6,-2e-5 2e-5,-4e-5 0,0 0,0 0,0 0.11999,-0.36069 0.17853,-0.25646 0.0218,0.20196 0,1e-5 0,2e-5 0,3e-5 0,0 0,0 0,0 -0.3031,1.466 -0.1468,3.34829 -0.0165,5.56294 0.24189,3.20343 0.6875,6.43866 1.24784,9.71205 0.5555,3.24506 1.22022,6.51005 1.90372,9.80004 1.38954,6.63803 2.95747,13.21823 4.6166,19.74997 0,0 0,0 0,0 0,10e-6 0,2e-5 0,3e-5 0,0 0,0 0,0 0.55302,2.17652 1.11609,4.34342 1.69166,6.49978 0,0 0,0 0,0 0,2e-5 10e-6,3e-5 10e-6,4e-5 0,0 0,0 0,0 0.16213,0.60739 0.32479,1.21233 0.48866,1.81461 0,0 0,0 0,0 0.0434,0.15935 0.0866,0.31765 0.1297,0.47486 -2e-5,-10e-6 -2e-5,-10e-6 -3e-5,-10e-6 -0.7963,-0.56788 -1.59267,-1.13622 -2.3891,-1.70505 0,0 0,0 0,0 0.003,0.0106 0.006,0.0213 0.009,0.0319 0.001,0.004 0.002,0.007 0.003,0.0112 53.95659,-0.72293 104.95221,-1.31777 151.13483,-1.73302 46.18262,-0.41525 87.55263,-0.65063 122.2135,-0.68821 34.66086,-0.0376 62.61252,0.12263 81.91145,0.46312 19.29893,0.34048 29.94464,0.8609 29.95068,1.51142 0.006,0.65052 -10.6344,1.36864 -30.05523,2.06876 -19.42082,0.70011 -47.62252,1.38185 -82.69608,1.99197 -35.07355,0.61011 -77.019,1.14856 -123.88034,1.59749 -46.86135,0.44894 -98.6382,0.80864 -153.33003,1.09481 -0.001,-0.004 -0.002,-0.008 -0.003,-0.0113 -0.003,-0.0107 -0.006,-0.0215 -0.009,-0.0322 0,0 0,0 0,0 -0.81951,-0.65223 -1.6389,-1.304 -2.4582,-1.9553 0,-1e-5 -10e-6,-1e-5 -10e-6,-1e-5 -0.046,-0.16615 -0.0915,-0.33139 -0.13655,-0.4957 0,0 0,0 0,0 -0.17041,-0.62109 -0.33857,-1.2413 -0.50516,-1.86043 0,0 0,0 0,0 -10e-6,-10e-6 -10e-6,-2e-5 -10e-6,-3e-5 0,0 0,0 0,0 -0.5915,-2.1982 -1.16887,-4.40332 -1.73454,-6.61435 0,0 0,0 0,0 -10e-6,-2e-5 -10e-6,-3e-5 -10e-6,-4e-5 0,0 0,0 0,0 -1.69619,-6.628 -3.30378,-13.34538 -4.73561,-20.16269 -0.70378,-3.32608 -1.39383,-6.71477 -1.97975,-10.17257 -0.59105,-3.48799 -1.0724,-7.02725 -1.35495,-10.62226 -0.22007,-2.32713 -0.33472,-5.03974 0.13971,-8.04407 0,-2e-5 0,-4e-5 0,-5e-5 0.0855,-0.93401 0.48717,-2.23646 1.35656,-3.79338 2e-5,-3e-5 3e-5,-6e-5 5e-5,-1e-4 0.72852,-1.42322 2.31795,-2.53701 4.69471,-3.13124 0,0 0,0 0,0 5e-5,-10e-6 1.1e-4,-3e-5 1.7e-4,-4e-5 0,0 0,0 0,0 32.81561,-4.65381 64.8914,-8.7504 95.65442,-11.77293 30.76303,-3.02254 60.21174,-4.96723 87.81394,-5.68294 27.6022,-0.71571 53.35728,-0.20443 76.79027,1.30497 23.433,1.5094 44.54435,4.00896 62.91773,6.9646 0,0 0,0 0,0 6.96014,1.11787 13.54146,2.31331 19.68973,3.59541 6.14826,1.28209 11.86381,2.65008 17.11423,4.07421 10.50085,2.84827 19.13142,5.93258 25.81132,8.73958 0,0 0,0 0,0 6.0006,2.52121 10.41896,4.88725 13.20678,6.66489 0,0 0,0 0,0 1.33535,0.85147 2.30587,1.57145 2.91409,2.10014 0,0 0,0 0,0 0.29862,0.25958 0.51187,0.47429 0.63994,0.63597 0,0 0,0 0,0 0.0633,0.08 0.10609,0.14734 0.12848,0.20091 0,0 0,0 0,0 0.0111,0.0267 0.0172,0.05 0.0184,0.0698 0.001,0.0202 -0.003,0.0368 -0.012,0.0497 z" id="path4132" inkscape:path-effect="#path-effect4134" inkscape:original-d="m 967.16524,336.10914 c 0,0 -79.08993,-57.82899 -401.98555,-11.99957 -7.63572,1.08376 8.3997,58.79789 8.3997,58.79789 l 387.58607,-3.59987" inkscape:connector-curvature="0" sodipodi:nodetypes="cscc"/>
    <path style="fill:#000000;fill-rule:evenodd;stroke:none" d="m 657.57637,247.31233 c -0.67806,-0.48433 -0.11771,-2.60512 1.66912,-6.05797 1.78682,-3.45285 4.80261,-8.23894 8.80073,-13.94165 8.42536,0.04 19.16411,0.40537 30.79639,1.09295 6.52834,0.38589 12.77716,0.84004 18.48003,1.33197 5.70287,0.49192 10.8593,1.02159 15.24606,1.56122 2.83268,5.41303 4.86729,9.86411 5.97848,13.02305 1.11119,3.15894 1.30098,5.02704 0.62626,5.39035 -0.67472,0.36331 -2.11683,-0.79925 -3.9215,-3.05549 -1.80468,-2.25625 -3.96992,-5.60489 -6.27316,-9.72999 -4.27356,0.0302 -9.04149,-0.0239 -14.15077,-0.168 -5.10928,-0.14408 -10.5604,-0.37816 -16.24357,-0.7106 -10.12637,-0.59234 -19.52214,-1.41135 -27.47878,-2.335 -3.27042,4.47324 -6.25442,8.08685 -8.65024,10.48971 -2.39582,2.40285 -4.20099,3.59378 -4.87905,3.10945 z" id="path4136" inkscape:path-effect="#path-effect4138" inkscape:original-d="m 657.57637,247.31233 11.99957,-16.79939 61.1978,3.59987 8.3997,15.59944" inkscape:connector-curvature="0"/>
    <path style="fill:#000000;fill-rule:evenodd;stroke:none" d="m 508.78172,242.51251 c 0.21064,0.0127 0.39417,0.33239 0.5858,0.91753 0.19162,0.58513 0.39378,1.43612 0.68821,2.51512 0.29444,1.07901 0.68414,2.38711 1.25606,3.87857 0.57193,1.49146 1.32917,3.1677 2.3177,4.95585 0.94317,1.69358 2.10272,3.48355 3.51936,5.30954 1.41664,1.82598 3.09134,3.68811 5.02604,5.51789 3.09728,2.91231 6.84976,5.73057 11.27136,7.8732 3.58968,1.71493 7.56136,3.0519 11.61002,3.15095 3.67797,0.15749 7.64562,-0.73886 11.58979,-2.31451 3.95424,-1.60751 7.79711,-3.97376 11.33447,-6.93947 3.33195,-2.81622 6.35405,-6.12406 8.66989,-9.8978 2.04035,-3.3759 3.59572,-7.0374 3.962,-10.72764 0.10737,-0.86829 0.15125,-1.75549 0.13808,-2.65685 -0.0428,-2.93181 -0.68525,-5.95095 -1.63916,-8.88259 -1.42649,-4.27402 -3.63332,-8.25564 -6.2774,-11.81233 -2.7726,-3.69466 -5.97299,-6.87547 -9.48527,-9.27291 -3.45019,-2.31868 -7.09458,-3.96432 -10.64731,-4.40427 -4.33121,-0.63882 -8.83807,0.21841 -12.96382,1.58515 -5.10724,1.72715 -9.57004,4.37619 -13.33143,7.21413 -2.36238,1.79354 -4.44075,3.66266 -6.2318,5.5249 -1.79105,1.86224 -3.29575,3.71765 -4.55135,5.49088 -1.39547,1.71619 -2.50951,3.352 -3.37617,4.8402 -0.86667,1.48821 -1.48842,2.82955 -1.94342,3.97385 -0.90998,2.28861 -1.18809,3.78953 -1.41792,4.16685 -0.10333,-0.006 -0.10373,-0.006 -0.10373,-0.006 0,0 -4e-4,-2e-5 -0.10373,-0.006 -0.0913,-0.20438 -0.17082,-0.70559 -0.20579,-1.49856 -0.035,-0.79298 -0.0235,-1.87846 0.10568,-3.22919 0.12918,-1.35073 0.37838,-2.96752 0.82563,-4.78909 0.44726,-1.82156 1.09501,-3.84865 1.99192,-5.97418 1.099,-2.17277 2.50581,-4.47175 4.26862,-6.79652 1.76281,-2.32477 3.88266,-4.67518 6.36595,-6.93202 3.9353,-3.59555 8.85664,-7.04212 14.84914,-9.5214 4.84237,-2.03187 10.55545,-3.36781 16.77974,-2.86042 5.27409,0.51854 10.39287,2.47164 14.86623,5.38936 4.55592,2.93454 8.64717,6.75636 12.07063,11.18644 3.30033,4.23807 6.0739,9.11985 7.94318,14.51977 1.30535,3.69985 2.13574,7.74398 2.18712,11.96302 0.0158,1.2971 -0.0424,2.60218 -0.18054,3.90944 -0.67862,5.567 -2.76229,10.59777 -5.51014,14.86167 -3.04112,4.77355 -6.83419,8.80392 -10.95272,12.09129 -4.34628,3.49271 -9.15063,6.22667 -14.14004,8.05982 -4.97371,1.85508 -10.28471,2.71708 -15.43802,2.3054 -5.64962,-0.526 -10.58809,-2.47251 -14.70882,-4.87517 -5.09528,-2.93969 -9.16046,-6.56101 -12.33053,-10.21083 -1.99147,-2.28106 -3.64901,-4.60671 -4.98663,-6.87182 -1.33761,-2.26512 -2.35632,-4.46966 -3.10885,-6.52902 -0.80384,-2.17879 -1.28963,-4.21601 -1.54539,-5.99902 -0.25576,-1.783 -0.28457,-3.31332 -0.19904,-4.53985 0.0855,-1.22654 0.28264,-2.15082 0.49818,-2.76026 0.21555,-0.60945 0.44758,-0.9053 0.65822,-0.89262 z" id="path4140" inkscape:path-effect="#path-effect4142" inkscape:original-d="m 508.78172,242.51251 c -1.05428,17.51303 18.49029,37.27021 35.9987,38.39862 17.58107,1.13309 38.82252,-16.09243 40.79854,-33.5988 1.98313,-17.56943 -14.82118,-40.08975 -32.39884,-41.99849 -19.1945,-2.08431 -43.23821,17.92622 -44.3984,37.19867 z" inkscape:connector-curvature="0" sodipodi:nodetypes="aaaaa"/>
    <path style="fill:#000000;fill-rule:evenodd;stroke:none" d="m 910.76727,225.71311 c -0.007,0.22643 -0.25218,0.43661 -0.6887,0.66003 -0.43652,0.22342 -1.06505,0.46252 -1.84576,0.78557 -0.78071,0.32305 -1.71453,0.73293 -2.75834,1.29629 -1.04381,0.56337 -2.19892,1.28308 -3.40198,2.18079 -1.16475,0.87744 -2.36944,1.93507 -3.57116,3.19668 -1.20172,1.26161 -2.40046,2.72816 -3.55929,4.38168 0,0 0,0 0,0 -1.87287,2.7018 -3.59341,5.88942 -4.77389,9.49124 -0.93088,2.92561 -1.57639,6.0363 -1.29593,9.01925 0.11263,2.21579 0.85391,4.48655 2.07705,6.72399 1.22313,2.23745 2.92738,4.44161 4.87139,6.4836 1.88129,1.85515 3.98664,3.47769 6.28625,4.56639 1.39838,0.63855 2.82579,1.13492 4.19267,1.33959 0.631,0.0945 1.24388,0.1257 1.83063,0.0816 2.00819,-0.0319 4.14808,-0.88935 6.14845,-2.06557 2.27644,-1.3704 4.28308,-3.30446 6.0491,-5.44099 1.90943,-2.40907 3.50109,-4.97513 4.63227,-7.5519 1.13118,-2.57678 1.80148,-5.16434 1.95461,-7.66393 0.26051,-2.97812 -0.20839,-5.91799 -1.0152,-8.6342 -0.80681,-2.71621 -1.95236,-5.20908 -3.16902,-7.39254 -1.65426,-2.8768 -3.45891,-5.11422 -5.21366,-6.70982 -1.63993,-1.82422 -3.21059,-2.92475 -4.41627,-3.5634 -1.20569,-0.63865 -2.06069,-0.86145 -2.33739,-1.05751 0.004,-0.12624 0.004,-0.12684 0.004,-0.12684 0,0 2e-5,-6e-4 0.004,-0.12684 0.30106,-0.17706 1.28372,-0.37924 2.91853,-0.32796 0.8174,0.0256 1.79382,0.12201 2.88695,0.34391 1.09312,0.2219 2.30364,0.57076 3.54957,1.0888 1.29664,0.70719 2.6486,1.62555 3.98657,2.7714 1.33797,1.14586 2.66158,2.52009 3.89697,4.09736 1.85112,2.30205 3.63681,5.10944 5.00993,8.43376 1.37312,3.32432 2.33338,7.16743 2.39848,11.43328 -0.0105,3.56573 -0.66036,7.22237 -1.93418,10.77771 -1.27383,3.55535 -3.1717,7.00863 -5.58001,10.12703 -2.18413,2.92039 -4.9447,5.67671 -8.35707,7.88881 -3.05536,2.00761 -6.7836,3.42095 -10.94267,3.68208 -1.25453,0.0434 -2.48969,-0.0225 -3.69483,-0.18637 -2.61057,-0.35499 -5.03336,-1.16251 -7.18421,-2.26003 -3.49935,-1.74781 -6.47969,-4.08489 -8.93334,-6.68484 -2.61786,-2.64631 -4.81126,-5.75508 -6.35625,-9.10435 -1.54498,-3.34927 -2.44117,-6.93825 -2.57166,-10.56753 -0.0376,-4.66329 1.09685,-8.82048 2.64668,-12.34082 1.88721,-4.36934 4.40174,-7.99828 7.04619,-10.89182 0,-1e-5 0,-1e-5 0,-1e-5 1.6161,-1.78362 3.31867,-3.31016 5.01576,-4.56307 1.69709,-1.2529 3.38837,-2.23314 4.99206,-2.9695 1.67232,-0.77843 3.27392,-1.26011 4.68516,-1.52192 1.41123,-0.26181 2.63342,-0.30662 3.61188,-0.23617 0.97846,0.0704 1.71465,0.25354 2.19791,0.46405 0.48325,0.21051 0.71486,0.44661 0.70741,0.67304 z" id="path4144" inkscape:path-effect="#path-effect4146" inkscape:original-d="m 910.76727,225.71311 c -13.61566,-0.44777 -26.9652,17.58763 -26.39905,31.19888 0.47017,11.30353 12.69858,24.53605 23.99914,23.99914 11.91927,-0.5663 22.4774,-15.67063 22.79918,-27.59901 0.30849,-11.43571 -8.96558,-27.223 -20.39927,-27.59901 z" inkscape:connector-curvature="0" sodipodi:nodetypes="aaaaa"/>
    <path style="fill:#000000;fill-rule:evenodd;stroke:none" d="m 160.79422,241.31254 c -0.94435,-0.0716 -0.95461,-11.64567 -0.18653,-31.73725 0.35031,-3.87642 0.81892,-8.07733 1.50012,-12.56559 0.6812,-4.48825 1.57452,-9.26412 2.82142,-14.27365 0.88207,-3.62148 1.95367,-7.4468 3.4501,-11.32956 1.49642,-3.88276 3.41743,-7.82331 6.07697,-11.60926 4.10757,-5.73057 9.16175,-11.1113 15.02569,-15.9883 5.86394,-4.87699 12.53788,-9.24971 19.72749,-13.01014 0,-1e-5 10e-6,-1e-5 10e-6,-1e-5 12.87856,-6.76849 27.46343,-11.84977 42.89733,-15.43653 11.87326,-2.76218 24.29396,-4.31732 36.91461,-5.20698 3.97535,-0.2821 7.9792,-0.49967 12.00709,-0.65832 10.22634,-0.4028 20.28394,-0.41508 30.10503,-0.20008 16.015,0.34999 31.44364,1.28833 46.08926,2.54484 14.64562,1.2565 28.5084,2.82963 41.40381,4.49818 29.23959,3.78114 53.55653,8.11942 70.85619,11.68273 9.16294,1.88722 16.36091,3.56883 21.28032,4.89254 5.04661,1.38432 7.7008,2.34193 7.61851,2.79974 0,0 0,1e-5 0,1e-5 0,0 0,0 0,0 -2.7e-4,0.001 -2.7e-4,0.001 -2.7e-4,0.001 0,0 0,0 -2.8e-4,0.001 0,0 0,0 0,0 0,0 0,0 0,0 -0.0937,0.45567 -2.91779,0.38261 -8.10863,-0.15912 -5.05759,-0.50299 -12.36619,-1.40321 -21.61292,-2.5646 -17.46826,-2.19419 -41.842,-5.3583 -70.99384,-8.26751 -12.86185,-1.28266 -26.64883,-2.5293 -41.16673,-3.52914 -14.51789,-0.99984 -29.76648,-1.75137 -45.55024,-1.99468 -9.67697,-0.14879 -19.54187,-0.107 -29.52703,0.28557 -3.93289,0.15463 -7.83548,0.36208 -11.70413,0.62816 -12.30168,0.85205 -24.20934,2.24894 -35.4426,4.75512 -14.86101,3.32059 -28.74418,7.87852 -40.93083,13.97984 -1e-5,0 -1e-5,1e-5 -1e-5,1e-5 -6.76645,3.40534 -13.03677,7.27443 -18.53746,11.5611 -5.5007,4.28667 -10.23212,8.99082 -14.07573,14.02105 -2.33193,2.9693 -4.09401,6.29757 -5.55809,9.72441 -1.46408,3.42684 -2.6298,6.95247 -3.69207,10.38413 -1.42116,4.66893 -2.52502,9.18246 -3.44317,13.46436 -0.91815,4.28191 -1.65009,8.33236 -2.2816,12.09463 -2.2621,19.85295 -4.01744,31.28307 -4.96179,31.21144 z" id="path4148" inkscape:path-effect="#path-effect4150" inkscape:original-d="m 160.79422,241.31255 c 0,0 0.76211,-57.49293 16.7994,-79.19715 17.13092,-23.1843 47.49184,-35.59035 75.59728,-41.99849 86.334,-19.68445 265.19047,15.59943 265.19047,15.59943 l 0,0" inkscape:connector-curvature="0" sodipodi:nodetypes="caacc"/>
    <path style="fill:#000000;fill-rule:evenodd;stroke:none" d="m 254.39086,124.91673 c 2.75865,0.0862 4.45998,17.35876 3.7976,38.55479 -0.66238,21.19604 -3.43887,38.32866 -6.19752,38.24245 -2.75865,-0.0862 -4.45998,-17.35876 -3.7976,-38.55479 0.66238,-21.19604 3.43887,-38.32866 6.19752,-38.24245 z" id="path4152" inkscape:path-effect="#path-effect4154" inkscape:original-d="m 254.39086,124.91673 -2.39992,76.79724" inkscape:connector-curvature="0"/>
    <path style="fill:#000000;fill-rule:evenodd;stroke:none" d="m 512.38159,139.31622 c 2.07711,-1.81747 11.28901,5.30877 20.56228,15.90679 9.27326,10.59802 15.11362,20.67436 13.03651,22.49183 -2.07711,1.81747 -11.28901,-5.30877 -20.56228,-15.90679 -9.27326,-10.59802 -15.11362,-20.67436 -13.03651,-22.49183 z" id="path4156" inkscape:path-effect="#path-effect4158" inkscape:original-d="m 512.38159,139.31622 33.59879,38.39862" inkscape:connector-curvature="0"/>
    <path style="fill:#000000;fill-rule:evenodd;stroke:none" d="m 167.99396,170.51509 c 2.62633,0.84851 -0.88674,19.00852 -7.84169,40.53575 -6.95495,21.52723 -14.73107,38.30996 -17.3574,37.46145 -2.62633,-0.84851 0.88674,-19.00852 7.84169,-40.53575 6.95495,-21.52723 14.73107,-38.30996 17.3574,-37.46145 z" id="path4160" inkscape:path-effect="#path-effect4162" inkscape:original-d="m 167.99396,170.51509 -25.19909,77.9972" inkscape:connector-curvature="0"/>
    <path style="fill:#000000;fill-rule:evenodd;stroke:none" d="m 129.59534,392.50712 c 0.14318,-2.75628 41.6531,-2.84295 92.65607,-0.19344 51.00297,2.6495 92.28047,7.03681 92.13729,9.79309 -0.14318,2.75628 -41.6531,2.84295 -92.65607,0.19344 -51.00297,-2.6495 -92.28047,-7.03681 -92.13729,-9.79309 z" id="path4164" inkscape:path-effect="#path-effect4166" inkscape:original-d="m 129.59534,392.50712 184.79336,9.59965 0,0" inkscape:connector-curvature="0"/>
    <path style="fill:#000000;fill-rule:evenodd;stroke:none" d="m 165.59405,388.90725 c -0.29113,0.0643 -0.79655,-0.87427 -1.50364,-2.73186 -0.70708,-1.8576 -1.62152,-4.63297 -2.7001,-8.26052 -1.07858,-3.62755 -2.32911,-8.10623 -3.57358,-13.40637 -1.24446,-5.30014 -2.49015,-11.42121 -3.30865,-18.38155 -0.63779,-5.88752 -0.83717,-12.42575 -0.11798,-19.39108 0.71919,-6.96532 2.35685,-14.35954 5.55723,-21.76905 9.51713,-9.09738 20.6803,-18.17533 33.33349,-26.72175 12.6532,-8.54642 26.7953,-16.55869 41.99593,-23.68618 7.31787,-3.3869 14.88374,-6.57805 22.65842,-9.54789 20.79459,-7.94331 41.47739,-13.68693 60.99124,-17.77663 14.58965,-3.06169 28.56342,-5.22088 41.57301,-6.61542 13.00958,-1.39454 25.0545,-2.02685 35.82989,-2.13577 12.37858,-0.126 23.10815,0.48465 31.73681,1.47027 7.90423,0.90009 14.08097,2.11671 18.20291,3.24104 4.12194,1.12433 6.21271,2.08869 6.11471,2.51862 -0.098,0.42993 -2.36788,0.30271 -6.54824,-0.005 -2.09018,-0.15371 -4.66089,-0.34337 -7.6871,-0.50942 -3.02622,-0.16604 -6.50865,-0.30613 -10.41559,-0.39627 -8.5136,-0.19264 -19.01956,-0.073 -31.15311,0.67811 -10.56477,0.65468 -22.34,1.76124 -35.04402,3.53865 -12.70402,1.77742 -26.33681,4.22782 -40.58508,7.47195 -19.04543,4.34183 -39.18929,10.12232 -59.44829,17.85909 -7.57443,2.89262 -14.94695,5.97528 -22.08361,9.22693 -14.60156,6.5598 -28.20612,13.86492 -40.44852,21.65818 -12.24241,7.79327 -23.12226,16.07374 -32.52923,24.41793 -2.87522,6.0436 -4.41533,12.35365 -5.19453,18.46645 -0.77919,6.1128 -0.79665,12.02951 -0.46582,17.47065 0.34822,6.68521 1.11736,12.71258 1.87162,18.00549 0.75426,5.2929 1.50088,9.85015 2.05841,13.58042 0.55754,3.73027 0.93383,6.63274 1.08663,8.6168 0.15279,1.98405 0.0879,3.04962 -0.20321,3.1139 z" id="path4168" inkscape:path-effect="#path-effect4170" inkscape:original-d="m 165.59405,388.90725 c -6.79975,-30.79889 -13.59951,-56.79796 -2.39991,-81.59707 86.79688,-79.99713 234.79156,-93.99662 289.1896,-81.59707" inkscape:connector-curvature="0" sodipodi:nodetypes="ccc"/>
    <path id="path4176" style="fill:#000000;fill-rule:evenodd;stroke:none" inkscape:path-effect="#path-effect4178" inkscape:original-d="m 121.19564,488.50367 c 0,0 14.12684,3.90219 19.19931,0 16.07185,-12.3639 15.59944,-58.79789 15.59944,-58.79789 M 130.7953,406.9066 c 0.87919,28.22711 5.42276,80.5652 -22.79918,81.59707 -31.862358,1.16496 -32.325876,-58.11321 -32.398837,-89.99677 -0.06022,-26.314 0.0851,-74.47946 26.399047,-74.39733" d="m 121.19569,488.50369 c 0.20501,-1.07916 3.24761,-1.53511 8.15657,-1.43991 1.75981,-0.11504 3.69542,-0.23716 5.57009,-0.6839 1.40909,-0.41609 2.64943,-0.69207 2.86881,-1.26089 0,0 0,0 0,0 1.40261,-1.27848 2.65106,-3.0698 3.86751,-5.18863 1.23792,-2.2011 2.29072,-4.7414 3.27538,-7.52482 0.40692,-1.14658 0.79237,-2.32288 1.15823,-3.52662 1.54531,-5.08431 2.61008,-10.17592 3.562,-14.88779 0.8939,-7.13177 1.9622,-13.19659 3.06513,-17.4903 1.10292,-4.2937 2.24043,-6.81574 3.26831,-6.79524 0,0 0,0 0,0 0,0 0,0 0,0 0,0 0,0 0,0 0,0 1e-5,0 1e-5,0 0,0 0,0 0,0 0,0 0,0 0,0 0.007,1.8e-4 0.007,1.9e-4 0.007,1.9e-4 0,0 0,-1e-5 0.007,2.2e-4 0,0 0,0 0,0 0,0 0,0 0,0 1e-5,0 1e-5,0 1e-5,0 0,0 0,0 0,0 0,0 0,0 0,0 0,0 0,0 0,0 1.0263,0.0426 1.79757,2.63329 2.27406,7.08462 0.4765,4.45134 0.65818,10.76381 0.50976,18.18311 -0.46093,5.10995 -1.35092,10.82782 -3.12084,16.72261 -0.41904,1.39562 -0.8783,2.76846 -1.37751,4.11221 -1.20037,3.22165 -2.72365,6.33206 -4.58925,9.12119 -1.79568,2.72442 -4.08982,5.15122 -6.69854,6.95861 0,0 0,0 0,0 -2.84105,1.78553 -5.41277,2.1406 -7.39695,2.03033 -2.85868,-0.0201 -5.21721,-0.50011 -7.13936,-1.04515 -4.78961,-1.74722 -7.47174,-3.29069 -7.26674,-4.36984 z m 9.59961,-81.59709 c 0.52065,-0.0162 1.09113,2.22511 1.72172,6.39892 0.31529,2.0869 0.64655,4.65786 0.97172,7.68067 0.32517,3.02281 0.64585,6.49747 0.89422,10.39883 0.24097,3.74936 0.43072,7.89888 0.44214,12.41747 0.0114,4.51858 -0.15471,9.40664 -0.70986,14.61971 -0.42046,3.95806 -1.09063,8.14395 -2.29106,12.46057 -0.96962,3.53074 -2.36626,7.21402 -4.54642,10.77588 -1.8424,3.02887 -4.3995,5.88967 -7.77798,8.0753 -3.41861,2.12491 -7.34826,3.29015 -11.3323,3.45667 -4.26497,0.22101 -8.743247,-0.56917 -12.907079,-2.6282 -3.860134,-1.98575 -7.115898,-4.85134 -9.647655,-8.15833 -2.765329,-3.5908 -4.85871,-7.56835 -6.467194,-11.61817 -1.797972,-4.4849 -3.126868,-9.13442 -4.152406,-13.81257 -0.158002,-0.71968 -0.309981,-1.44117 -0.456135,-2.16435 -1.959048,-9.69352 -2.793813,-19.23854 -3.223343,-28.35597 -0.467322,-9.75957 -0.431359,-19.10744 -0.317831,-27.9356 0.100346,-8.00469 0.303267,-15.70237 0.837065,-22.95888 0,0 10e-7,-1e-5 10e-7,-1e-5 0.329899,-4.52936 0.777517,-8.90518 1.38861,-13.06851 0.611093,-4.16332 1.385299,-8.11412 2.321991,-11.80869 1.003385,-4.08277 2.268526,-7.95992 3.832074,-11.37193 1.563548,-3.412 3.421287,-6.36184 5.448027,-8.77451 10e-7,-10e-6 2e-6,-10e-6 3e-6,-10e-6 1.195399,-1.41834 2.482384,-2.62228 3.780925,-3.59937 1.298542,-0.97709 2.608603,-1.72833 3.864775,-2.28041 1.492812,-0.64419 2.872548,-0.99017 4.07029,-1.17181 1.197742,-0.18163 2.215133,-0.19881 3.027849,-0.1451 1.625433,0.10742 2.429853,0.46185 2.428883,0.77137 -9.7e-4,0.30952 -0.80516,0.57125 -2.219833,1.03124 -0.707335,0.22999 -1.56707,0.51658 -2.529686,0.92627 -0.962616,0.40968 -2.029781,0.94254 -3.107028,1.68474 -0.922223,0.62302 -1.860271,1.40081 -2.778652,2.35236 -0.918382,0.95154 -1.817093,2.07783 -2.661105,3.35912 -10e-7,0 -2e-6,0 -2e-6,0 -1.48224,2.23227 -2.773369,4.91193 -3.829692,8.04542 -1.056323,3.13349 -1.874303,6.72451 -2.600848,10.62931 -0.6232,3.50789 -1.100709,7.26016 -1.441624,11.24113 -0.340915,3.98097 -0.544933,8.19083 -0.668102,12.60138 0,0 0,0 0,10e-6 -0.190262,7.03063 -0.09791,14.55432 0.03897,22.51582 0.153839,8.78752 0.317822,17.97774 0.907078,27.41779 0.559942,8.86275 1.402058,17.9312 3.228212,26.90867 0.13624,0.66976 0.277567,1.33672 0.424191,2.00078 0.952182,4.3055 2.09989,8.43832 3.620539,12.28421 1.386276,3.46799 2.982398,6.66862 5.012764,9.32162 1.831609,2.37395 3.935602,4.37415 6.266073,5.56577 2.407394,1.3137 5.307194,1.861 8.167164,1.82151 2.5295,-0.0716 4.97329,-0.66434 6.9047,-1.83259 2.01207,-1.13248 3.73062,-2.98821 5.16931,-5.06629 1.72688,-2.51939 2.95218,-5.44767 3.96499,-8.45045 1.22388,-3.67324 2.01984,-7.41894 2.63828,-11.08288 0.81443,-4.83511 1.28349,-9.47073 1.60765,-13.81888 0.32415,-4.34815 0.50253,-8.4088 0.65245,-12.11195 0.15385,-3.83617 0.25508,-7.2925 0.3693,-10.31545 0.11422,-3.02294 0.23985,-5.61241 0.39645,-7.71962 0.31321,-4.2144 0.74677,-6.49579 1.26742,-6.51201 z" inkscape:connector-curvature="0" sodipodi:nodetypes="csccssc"/>
    <path d="m 431.3073,520.30527 c 0.1704,-1.19623 6.30525,-1.44196 16.31174,-0.88828 3.7626,-0.007 8.02806,-0.0366 12.52587,-0.6074 1.63914,-0.24507 3.26512,-0.47974 4.75272,-0.83227 1.4876,-0.35254 2.83661,-0.82289 3.89436,-1.58879 0,0 0,0 0,0 3.38475,-2.10969 6.57846,-5.07068 9.44225,-8.62285 2.79246,-3.4715 5.22889,-7.54411 7.39597,-11.98559 0.0366,-0.0751 0.0732,-0.15023 0.10961,-0.22548 2.34646,-4.84468 4.19557,-9.79821 5.73131,-14.67321 1.53573,-4.875 2.75951,-9.6698 3.81454,-14.21356 0,0 0,0 0,0 0,0 0,0 0,0 2.41284,-10.46763 3.81575,-19.57862 4.94622,-26.18998 0,0 0,0 0,0 0.60272,-3.52777 1.11593,-6.33906 1.60621,-8.29065 0,0 0,0 0,0 0.25111,-0.99959 0.49594,-1.77079 0.74196,-2.29683 0,0 0,0 0,0 0.12429,-0.26577 0.24889,-0.46813 0.37468,-0.60538 0,0 0,0 0,0 0,0 0,0 0,0 0.0632,-0.0686 0.12671,-0.12086 0.19062,-0.15645 0,0 0,0 0,0 0,0 0,0 0,0 0.0966,-0.0187 0.14582,-0.0326 0.1708,-0.0419 0.0247,-0.009 0.0257,-0.0138 0.0257,-0.0142 0,0 0,0 0,0 0,-10e-6 0,-10e-6 0,-10e-6 0,0 0,0 0,10e-6 0,0 0,0 0,0 5e-5,3.6e-4 0.001,0.005 0.0261,0.0136 0.0252,0.009 0.0747,0.0214 0.17165,0.0379 0,0 0,0 0,0 0,0 0,0 0,0 0.0646,0.0347 0.12901,0.0869 0.19305,0.15635 0,0 0,0 0,0 0,0 0,0 0,0 0.12745,0.13751 0.25346,0.34291 0.37676,0.61293 0,0 0,0 0,0 0.24405,0.53443 0.47755,1.32531 0.68996,2.35056 0,0 0,0 0,0 0.41475,2.00186 0.75056,4.90903 0.91666,8.56728 0,0 0,0 0,0 0.31235,6.85355 0.0691,16.40398 -1.66277,27.53892 0,0 0,0 0,0 -10e-6,0 -10e-6,0 -10e-6,0 -0.74219,4.8236 -1.77046,9.97659 -3.25897,15.29694 -1.4885,5.32034 -3.43949,10.80742 -6.046,16.24645 -0.0405,0.0845 -0.0811,0.16888 -0.12183,0.2532 -2.42363,5.01674 -5.3868,9.73617 -8.88517,13.84726 -3.60648,4.2467 -7.86769,7.75398 -12.43226,10.22815 0,0 0,0 0,0 -2.30537,1.17339 -4.56538,1.84005 -6.69198,2.22153 -2.1266,0.38147 -4.11994,0.47796 -5.92611,0.46517 -5.28562,0.0888 -9.90115,-0.49306 -13.79845,-1.17155 -9.91571,-2.28417 -15.75559,-4.23565 -15.58519,-5.43187 z M 329.71734,380.66317 c -0.4111,0.001 -0.86283,-3.1881 -1.09249,-9.2339 -0.11483,-3.0229 -0.16652,-6.75988 -0.0714,-11.16367 0.0951,-4.40379 0.33648,-9.47476 0.84864,-15.15572 0.48686,-5.42834 1.21198,-11.4334 2.40779,-17.91436 1.1958,-6.48096 2.86067,-13.43908 5.35466,-20.70503 1.80832,-5.3201 4.11738,-10.86168 7.21015,-16.2965 3.09278,-5.43482 6.96904,-10.76379 11.98947,-15.51019 4.33695,-4.06287 9.53553,-7.53377 15.45183,-9.9212 6.15087,-2.45834 12.89691,-3.68956 19.75788,-3.7262 7.24164,-0.0622 14.77318,1.07964 22.02141,3.86582 6.39028,2.47967 12.38919,6.201 17.64605,10.9098 5.221,4.71612 9.71102,10.22604 13.54086,16.25728 3.82984,6.03123 6.99954,12.58356 9.62041,19.31651 5.37701,13.66366 8.86045,28.35771 11.19156,43.40207 2.02492,13.00424 3.2096,26.3586 3.77714,39.90105 0.15523,3.67344 0.26198,7.36854 0.31131,11.08222 0.12215,9.1936 -0.11161,18.32342 -0.7886,27.34025 -1.05913,14.28097 -3.25414,28.41325 -7.45884,41.77069 -1.99228,6.4302 -4.54839,12.75622 -7.80788,18.63965 -3.25949,5.88342 -7.22243,11.324 -11.9942,16.03464 -4.7832,4.66872 -10.36618,8.3995 -16.39839,10.93763 -6.89189,2.86941 -14.12308,4.14909 -21.12851,4.27566 -8.19392,0.17935 -16.31237,-1.08972 -23.73692,-3.91535 -7.08428,-2.72376 -13.32921,-6.80901 -18.52618,-11.64682 -5.62423,-5.24678 -10.03885,-11.21949 -13.56426,-17.29077 -4.07367,-7.00511 -7.05256,-14.13998 -9.38039,-21.03726 -2.97399,-8.81357 -4.95738,-17.26848 -6.38461,-25.15468 -1.42723,-7.88621 -2.29665,-15.20506 -2.88842,-21.82725 -0.61684,-6.87072 -0.9201,-13.01654 -1.05577,-18.36324 -0.13567,-5.34669 -0.10304,-9.89463 0.003,-13.57985 0.21301,-7.37042 0.68868,-11.28989 1.14427,-11.29128 0.45559,-0.001 0.86365,3.91622 1.4881,11.21746 0.31223,3.65063 0.68656,8.14691 1.21335,13.41341 0.52679,5.26651 1.2053,11.30361 2.17604,18.02298 0.93903,6.4818 2.12806,13.60866 3.82651,21.21596 1.69846,7.6073 3.90452,15.69611 7.02753,24.0154 2.43941,6.49888 5.4256,13.12031 9.35354,19.45541 3.40107,5.47649 7.48649,10.7579 12.50581,15.20012 4.60066,4.08114 10.03444,7.48486 16.04699,9.64797 6.2957,2.29386 13.32138,3.23109 20.50624,2.98897 6.05931,-0.23149 12.17298,-1.37832 17.75704,-3.82822 4.89298,-2.12 9.46331,-5.27171 13.39346,-9.18145 4.01758,-3.94266 7.36109,-8.67067 10.16151,-13.91371 2.80041,-5.24304 5.05788,-11.00088 6.9339,-16.95011 3.84915,-12.41667 5.83049,-25.79978 6.84853,-39.59131 0.63324,-8.69081 0.84573,-17.52892 0.72623,-26.47166 -0.0483,-3.61235 -0.15006,-7.21355 -0.29652,-10.80052 -0.54573,-13.24906 -1.6539,-26.23584 -3.55401,-38.81841 -2.21321,-14.57956 -5.39759,-28.59054 -10.33809,-41.43162 -2.45406,-6.30409 -5.28657,-12.35918 -8.63706,-17.84193 -3.35049,-5.48275 -7.2191,-10.39298 -11.70812,-14.47675 -4.4367,-4.07616 -9.46556,-7.32785 -14.77919,-9.47863 -6.01232,-2.46012 -12.48133,-3.5476 -18.8149,-3.64151 -5.92715,-0.0666 -11.68958,0.82436 -16.84544,2.77172 -4.96599,1.85288 -9.45139,4.69116 -13.26672,8.06421 -4.49957,3.93706 -8.07774,8.59922 -11.03529,13.48075 -2.95755,4.88154 -5.29407,9.98323 -7.23647,14.94883 -2.63689,6.80459 -4.51174,13.42045 -5.96037,19.63942 -1.44864,6.21898 -2.46935,12.04214 -3.27527,17.33641 -0.84032,5.5367 -1.42805,10.50296 -1.88243,14.82945 -0.45438,4.32649 -0.77498,8.0136 -1.04181,11.00376 -0.53366,5.98032 -0.88199,9.17235 -1.29309,9.1736 z" inkscape:original-d="m 431.30727,520.30526 c 0,0 29.24305,6.05477 39.74324,0 33.26929,-19.18425 32.29138,-91.23283 32.29138,-91.23283 M 329.71734,380.66317 c -0.12462,-40.82971 7.3759,-115.56489 61.84669,-115.43746 60.48791,0.14151 70.93129,84.35256 72.8144,129.67069 1.81995,43.79815 -1.97423,123.80777 -60.39463,125.40886 -65.95619,1.80759 -74.11543,-90.17046 -74.26646,-139.64209 z" inkscape:path-effect="#path-effect4183" style="fill:#000000;fill-rule:evenodd;stroke:none" id="path4181" inkscape:connector-curvature="0" sodipodi:nodetypes="cscsssss"/>
    <path inkscape:connector-curvature="0" id="path4185" style="fill:#000000;fill-rule:evenodd;stroke:none" inkscape:path-effect="#path-effect4187" inkscape:original-d="m 802.09395,503.50586 c 0,0 29.24305,6.05477 39.74324,0 33.26929,-19.18425 29.89147,-68.43365 29.89147,-68.43365 m -48.80067,5.32014 c -2.57172,32.81345 -13.27151,62.15741 -48.15751,63.11351 -37.94567,1.03995 -54.37816,-28.96212 -61.52041,-64.05301" d="m 802.09398,503.50587 c 0.009,-0.0462 0.0263,-0.0907 0.0506,-0.13347 0.0234,-0.0412 0.0537,-0.0809 0.0908,-0.1191 0.0735,-0.0758 0.17365,-0.14567 0.2998,-0.20999 0,0 0,0 0,0 0,0 0,0 0,0 0.24797,-0.12671 0.59553,-0.23208 1.03867,-0.31866 0,0 0,0 0,0 0.85518,-0.16708 2.06188,-0.26467 3.58546,-0.3162 0,0 0,0 0,0 2.77336,-0.0939 6.58468,-0.0226 11.18216,-0.0424 0,0 0,0 0,0 3.78797,-0.02 8.07368,-0.0537 12.57307,-0.6085 0,0 0,0 0,0 1.63999,-0.2457 3.25808,-0.47538 4.72953,-0.81728 1.47146,-0.3419 2.79593,-0.79608 3.8267,-1.53827 4.57296,-2.81179 8.9497,-6.68233 12.7331,-11.4135 1.49845,-1.87383 2.85799,-3.821 4.07736,-5.80092 4.27501,-6.84366 6.93395,-14.15584 8.8359,-20.7311 1.16677,-7.87223 2.37789,-14.44558 3.51841,-19.07357 1.14051,-4.62799 2.21034,-7.30974 3.08774,-7.31078 0,0 0,0 0,0 0,0 0,0 0,0 0,0 0,0 0,0 0,0 0,0 0,0 0,0 0,0 0,0 10e-6,0 10e-6,0 10e-6,0 0,0 0,0 0,0 0,0 0,0 0,0 0,0 0,0 0,0 0,0 0,0 0,0 0.005,3e-5 0.005,4e-5 0.005,4e-5 0,0 0,-10e-6 0.005,8e-5 0,0 0,0 0,0 0,0 0,0 0,0 0,0 0,0 0,0 0,0 10e-6,0 10e-6,0 0,0 0,0 0,0 0,0 0,0 0,0 0,0 0,0 0,0 0,0 0,0 0,0 0,0 0,0 0,0 0,0 0,0 0,0 0.8754,0.0209 1.45171,2.73454 1.72769,7.55818 0.27598,4.82364 0.25156,11.75814 -0.0678,20.1327 -0.63183,3.73259 -1.57509,7.74385 -2.96339,11.88571 -1.38829,4.14186 -3.22304,8.41378 -5.63422,12.61782 -1.38751,2.39051 -2.9817,4.73455 -4.78001,6.97775 -4.54048,5.66377 -10.03757,10.20992 -15.81274,13.36523 -2.32029,1.19014 -4.59789,1.87463 -6.74079,2.26821 -2.1429,0.39359 -4.15123,0.49664 -5.96815,0.48401 -5.24408,0.10203 -9.8505,-0.47866 -13.75125,-1.17266 0,0 0,0 0,0 -4.76028,-0.84001 -8.55712,-1.90004 -11.21903,-2.87831 0,0 0,0 0,0 -1.46302,-0.53747 -2.58717,-1.05576 -3.33698,-1.52357 0,0 0,0 0,0 -0.38852,-0.2424 -0.67772,-0.47162 -0.86181,-0.68375 0,0 0,0 0,0 0,0 0,0 0,0 -0.0933,-0.10771 -0.15984,-0.21109 -0.19883,-0.30964 -0.0197,-0.0497 -0.0323,-0.0981 -0.038,-0.1453 -0.006,-0.049 -0.004,-0.0966 0.005,-0.1428 z m 20.83401,-63.11352 c 0.64004,0.0502 1.11408,2.35382 1.2033,6.55532 0.0446,2.10075 -0.0139,4.6758 -0.2574,7.67144 -0.24351,2.99564 -0.6715,6.41244 -1.41495,10.18049 0,10e-6 0,10e-6 0,10e-6 -0.62292,3.1824 -1.48495,6.63149 -2.7377,10.24306 -1.25276,3.61157 -2.89653,7.38605 -5.12934,11.16045 -3.50238,5.90857 -8.63005,11.66356 -15.57059,15.80202 -7.09763,4.1338 -15.54575,6.28128 -24.11402,6.49273 -1.65288,0.055 -3.32464,0.049 -5.0078,-0.0241 -7.65413,-0.33207 -15.1278,-2.05583 -21.78375,-5.17212 -7.99857,-3.813 -14.365,-9.44167 -19.0668,-15.44701 -2.94781,-3.77204 -5.29106,-7.62992 -7.19421,-11.37549 -1.90315,-3.74557 -3.36671,-7.37905 -4.52579,-10.7647 0,0 0,0 0,0 -1.35318,-3.93897 -2.31541,-7.55667 -3.01463,-10.7527 -0.69923,-3.19603 -1.1352,-5.97104 -1.39072,-8.2499 -0.51103,-4.55772 -0.33242,-7.12492 0.32648,-7.25903 0.6589,-0.13411 1.74173,2.17858 3.36611,6.35638 0.81219,2.0889 1.7668,4.64198 2.92782,7.56185 1.16102,2.91987 2.52802,6.20687 4.20638,9.73712 0,0 0,10e-6 0,10e-6 1.44444,3.02899 3.11101,6.24152 5.09388,9.48428 1.98288,3.24277 4.28198,6.51564 7.02478,9.60968 4.31777,4.87734 9.80512,9.37313 16.32315,12.23807 5.40039,2.42988 11.61373,3.73626 18.14539,4.02513 1.43633,0.0635 2.87062,0.0779 4.29609,0.0485 3.6215,-0.11094 7.1605,-0.53659 10.47558,-1.32585 3.31509,-0.78927 6.40591,-1.94248 9.17139,-3.48232 5.45059,-2.93938 9.80653,-7.41097 13.06164,-12.11758 2.11395,-3.05382 3.79033,-6.24047 5.18694,-9.37142 1.39661,-3.13094 2.51323,-6.20617 3.4604,-9.09117 0,0 0,-1e-5 0,-1e-5 1.11668,-3.42017 1.98066,-6.57734 2.70483,-9.37198 0.72416,-2.79464 1.30783,-5.22704 1.81852,-7.21801 1.02138,-3.98194 1.77498,-6.19332 2.41502,-6.14316 z" sodipodi:nodetypes="csccsc"/>
  </g>
  <metadata>
    <rdf:RDF>
      <cc:Work>
        <dc:format>image/svg+xml</dc:format>
        <dc:type rdf:resource="http://purl.org/dc/dcmitype/StillImage"/>
        <cc:license rdf:resource="http://creativecommons.org/licenses/publicdomain/"/>
        <dc:publisher>
          <cc:Agent rdf:about="http://openclipart.org/">
            <dc:title>Openclipart</dc:title>
          </cc:Agent>
        </dc:publisher>
        <dc:title>sylwetka FSO Syrena Sport</dc:title>
        <dc:date>2013-12-17T13:43:16</dc:date>
        <dc:description>A prototype of the most beautiful car ever made in eastern Europe FSO Syrena Sport</dc:description>
        <dc:source>http://openclipart.org/detail/189543/sylwetka-fso-syrena-sport-by-koconmus-189543</dc:source>
        <dc:creator>
          <cc:Agent>
            <dc:title>koconmus</dc:title>
          </cc:Agent>
        </dc:creator>
        <dc:subject>
          <rdf:Bag>
            <rdf:li>shiluette</rdf:li>
            <rdf:li>vechicle</rdf:li>
            <rdf:li>car</rdf:li>
            <rdf:li>samochd</rdf:li>
            <rdf:li>the charm of four wheels</rdf:li>
          </rdf:Bag>
        </dc:subject>
      </cc:Work>
      <cc:License rdf:about="http://creativecommons.org/licenses/publicdomain/">
        <cc:permits rdf:resource="http://creativecommons.org/ns#Reproduction"/>
        <cc:permits rdf:resource="http://creativecommons.org/ns#Distribution"/>
        <cc:permits rdf:resource="http://creativecommons.org/ns#DerivativeWorks"/>
      </cc:License>
    </rdf:RDF>
  </metadata>
</svg>
